
<svg width="452px" height="334px" viewBox="0 0 452 334" version="1.1" xmlns="http://www.w3.org/2000/svg" xmlns:xlink="http://www.w3.org/1999/xlink">
    <defs>
        <linearGradient x1="50%" y1="100%" x2="50%" y2="0%" id="linearGradient-1">
            <stop stop-color="#808080" stop-opacity="0.25" offset="0%"></stop>
            <stop stop-color="#808080" stop-opacity="0.12" offset="54%"></stop>
            <stop stop-color="#808080" stop-opacity="0.1" offset="100%"></stop>
        </linearGradient>
        <linearGradient x1="49.9983815%" y1="99.9650755%" x2="49.9983815%" y2="0.00516764778%" id="linearGradient-2">
            <stop stop-color="#808080" stop-opacity="0.25" offset="0%"></stop>
            <stop stop-color="#808080" stop-opacity="0.12" offset="54%"></stop>
            <stop stop-color="#808080" stop-opacity="0.1" offset="100%"></stop>
        </linearGradient>
        <linearGradient x1="49.9975244%" y1="100%" x2="49.9975244%" y2="0%" id="linearGradient-3">
            <stop stop-color="#808080" stop-opacity="0.25" offset="0%"></stop>
            <stop stop-color="#808080" stop-opacity="0.12" offset="54%"></stop>
            <stop stop-color="#808080" stop-opacity="0.1" offset="100%"></stop>
        </linearGradient>
        <linearGradient x1="49.9926407%" y1="100.000845%" x2="49.9926407%" y2="-0.00700073374%" id="linearGradient-4">
            <stop stop-color="#808080" stop-opacity="0.25" offset="0%"></stop>
            <stop stop-color="#808080" stop-opacity="0.12" offset="54%"></stop>
            <stop stop-color="#808080" stop-opacity="0.1" offset="100%"></stop>
        </linearGradient>
    </defs>
    <g id="Page-1" stroke="none" stroke-width="1" fill="none" fill-rule="evenodd">
        <path d="M12.162722,209.76737 C6.73918408,210.649166 -0.0628364171,213.172459 0.000438192224,219.037533 C0.0320754969,222.013029 2.00714723,224.549889 3.92798358,226.724985 C12.0923125,236.032971 21.4066365,244.264287 31.6467821,251.220826 C36.5370054,254.535474 41.7933176,257.705418 45.0429208,262.828878 C48.2925239,267.952339 49.1105742,274.473107 49.3681923,280.677333 C50.0018845,295.366569 48.2713945,310.062221 44.2429489,324.201879 C60.1655524,327.236161 77.9231195,329.895115 91.192709,320.312932 C99.1381921,314.574475 104.512014,304.960638 113.36594,300.981251 C119.277596,298.322297 125.971146,298.557443 132.416117,298.896595 C162.923518,300.503423 193.355592,303.51811 223.712339,307.940656 C236.426016,309.794689 249.383752,311.892911 261.96184,309.496235 C274.539929,307.099559 286.914634,299.280968 291.551759,286.605716 C292.265858,284.652198 292.907644,282.47258 294.507587,281.296852 C295.953864,280.247741 297.847583,280.270351 299.605713,280.333659 L405.852821,283.98746 C411.674085,284.186429 417.698732,284.349222 423.027358,281.952546 C428.193278,279.632744 432.16602,275.1695 435.989614,270.796696 C444.735069,260.821097 454.140387,248.548305 451.568727,235.009346 C449.512302,224.156472 440.319405,216.573027 431.203342,211.264163 C422.087278,205.955299 412.031135,201.609627 405.333066,193.121775 C395.141334,180.202334 395.54358,161.71175 394.910834,144.948583 C394.334203,129.769541 392.466883,114.667183 389.329109,99.8051504 C386.567624,86.7410037 382.721432,73.658769 375.530725,62.6250141 C368.340017,51.5912593 357.343794,42.7552113 344.905814,41.1363243 C328.662318,39.020014 312.332949,49.1584068 296.441983,44.8534336 C283.018726,41.235809 273.780633,28.3796758 262.657861,19.4712754 C242.902624,3.64416799 216.978113,0.329519499 192.468241,0.0265434432 C166.480455,-0.303564796 139.805687,2.32825706 116.642661,14.5377399 C111.336633,17.3323549 106.148115,20.7148338 102.473668,25.6528913 C96.8422277,33.2272927 95.477304,43.4018617 91.7938178,52.2559978 C76.9468827,87.9076877 28.6593166,95.5951398 12.9852919,130.866979 C7.42164594,143.379438 7.47588132,157.972031 11.5299759,171.113052 C15.8914044,185.253442 28.1666786,193.062989 33.0343039,205.390045 C27.7960701,208.76348 18.512781,208.731825 12.162722,209.76737 Z" fill="#EB4242" opacity="0.1"></path>
        <g id="Group" opacity="0.2" transform="translate(390.000000, 67.000000)">
            <path d="M10.6880769,100.963767 C10.6880769,100.963767 12.8665385,72.0813901 29.2231538,56.3878924 C36.1259052,49.8497867 40.7171444,41.2535154 42.3075385,31.8897309 C43.0214232,27.4384153 43.3252565,22.9312021 43.2152308,18.424574" stroke="#535461" stroke-width="2"></path>
            <path d="M53.4812308,8.47403587 C52.274,11.6444395 42.9973846,18.7144395 42.9973846,18.7144395 C42.9973846,18.7144395 40.7281538,7.2964574 41.9263077,4.11246637 C43.1331986,0.926959752 46.6992505,-0.679032996 49.8913077,0.525381166 C53.0833649,1.72979533 54.6926601,5.28852926 53.4857692,8.47403587 L53.4812308,8.47403587 Z" fill="#EB4242"></path>
            <path d="M56.3495385,29.7202691 C53.6037692,31.7402691 41.9716923,32.6279821 41.9716923,32.6279821 C41.9716923,32.6279821 46.2786923,21.8078475 49.0244615,19.7878475 C50.8015555,18.4820337 53.1417341,18.2215348 55.1634745,19.1044782 C57.1852149,19.9874216 58.5813667,21.8796673 58.826013,24.0684245 C59.0706593,26.2571817 58.1266325,28.4099262 56.3495385,29.7157399 L56.3495385,29.7202691 Z" fill="#EB4242"></path>
            <path d="M44.5086923,59.712287 C41.1139231,60.0700897 30.6255385,54.9793274 30.6255385,54.9793274 C30.6255385,54.9793274 39.8159231,47.8096861 43.2061538,47.4473543 C46.5999861,47.0884063 49.6428139,49.5430202 50.0025,52.9298879 C50.3621861,56.3167555 47.9025246,59.3533391 44.5086923,59.712287 Z" fill="#EB4242"></path>
            <path d="M30.4303846,80.3923767 C27.1445385,81.2982063 15.9436154,78.0689238 15.9436154,78.0689238 C15.9436154,78.0689238 23.7860769,69.4635426 27.0719231,68.526009 C29.1960044,67.9273086 31.4787962,68.5049452 33.0603927,70.0413286 C34.6419893,71.577712 35.2821084,73.839429 34.7396235,75.9745126 C34.1971386,78.1095962 32.554466,79.7936765 30.4303846,80.3923767 Z" fill="#EB4242"></path>
            <path d="M29.6043846,28.6695067 C31.0521538,31.7538565 40.8461538,38.0765471 40.8461538,38.0765471 C40.8461538,38.0765471 42.2394615,26.5181614 40.7916923,23.4338117 C39.8545022,21.4394927 37.9223585,20.0956248 35.7230809,19.9084302 C33.5238033,19.7212355 31.3915145,20.7191534 30.1294271,22.5262777 C28.8673396,24.333402 28.6671945,26.6751877 29.6043846,28.6695067 Z" fill="#EB4242"></path>
            <path d="M13.4429231,53.0634978 C15.7484615,55.5726457 26.9902308,58.6841704 26.9902308,58.6841704 C26.9902308,58.6841704 24.8526154,47.2390135 22.5470769,44.7298655 C20.2410757,42.2197313 16.3326421,42.0504126 13.8173462,44.3516816 C11.3020502,46.6529506 11.1323834,50.5533636 13.4383846,53.0634978 L13.4429231,53.0634978 Z" fill="#EB4242"></path>
            <path d="M0.998461538,78.9204036 C2.84561538,81.7828251 13.4020769,86.7422422 13.4020769,86.7422422 C13.4020769,86.7422422 13.2341538,75.1023318 11.387,72.2489686 C9.53843914,69.3861401 5.71433114,68.5608384 2.84561556,70.4056056 C-0.0231000206,72.2503729 -0.850099029,76.0666332 0.998461538,78.9294619 L0.998461538,78.9204036 Z" fill="#FF6347"></path>
        </g>
        <polygon fill="url(#linearGradient-1)" points="74 40 74 56.2294143 74 248 409 248 409 56.2294143 409 40"></polygon>
        <rect id="Rectangle" fill="#F6F7F9" x="78" y="42" width="328" height="16"></rect>
        <g id="Group" opacity="0.2" transform="translate(77.000000, 42.000000)" fill="#EB4242">
            <rect id="Rectangle" x="0.438968363" y="0.311111111" width="328.162792" height="15.6488889"></rect>
        </g>
        <rect id="Rectangle" fill="#F6F7F9" x="78" y="58" width="328" height="188"></rect>
        <circle id="Oval" fill="#F6F7F9" cx="85.5" cy="49.5" r="3.5"></circle>
        <circle id="Oval" fill="#F6F7F9" cx="95.5" cy="49.5" r="3.5"></circle>
        <circle id="Oval" fill="#F6F7F9" cx="104.5" cy="49.5" r="3.5"></circle>
        <g id="Group" opacity="0.2" transform="translate(89.000000, 81.000000)" fill="#EB4242">
            <rect id="Rectangle" x="0.0813368984" y="0.301785714" width="168.552647" height="12.5125"></rect>
        </g>
        <g id="Group" opacity="0.2" transform="translate(301.000000, 81.000000)" fill="#EB4242">
            <rect id="Rectangle" x="0.374974619" y="0.301785714" width="88.381066" height="12.5125"></rect>
        </g>
        <g id="Group" opacity="0.2" transform="translate(121.000000, 140.000000)" fill="#EB4242">
            <rect id="Rectangle" x="0.354235808" y="56.013981" width="11.8441921" height="38.7563981"></rect>
            <rect id="Rectangle" x="23.2569432" y="28.2163507" width="11.8441921" height="66.5495261"></rect>
            <rect id="Rectangle" x="46.1596507" y="0.423222749" width="11.8441921" height="94.342654"></rect>
            <rect id="Rectangle" x="69.0623581" y="9.42796209" width="11.8441921" height="85.3424171"></rect>
            <rect id="Rectangle" x="91.9650655" y="36.0459716" width="11.8441921" height="58.7199052"></rect>
        </g>
        <g id="Group" opacity="0.2" transform="translate(301.000000, 120.000000)" fill="#EB4242">
            <rect id="Rectangle" x="0.18071066" y="0.328801653" width="88.381066" height="108.283843"></rect>
        </g>
        <path d="M451.684425,197.588447 C451.116425,194.721361 450.025866,191.917388 449.998602,188.996207 C449.957706,184.253795 452.502344,178.745024 449.157963,175.242311 C448.394572,174.444396 447.372173,173.849341 446.804173,172.916186 C446.375271,172.109428 446.171338,171.203667 446.213454,170.292532 C446.158926,164.761221 449.230667,159.144258 447.390349,153.901459 C447.031056,152.725134 446.289776,151.699684 445.281935,150.984786 C444.218639,150.29957 443.009937,150.168838 441.70581,150.191378 C440.528915,150.191378 439.288404,150.32211 438.070613,150.34465 C437.381715,150.345117 436.695748,150.255693 436.030359,150.078679 C434.62172,149.681975 433.426649,148.766852 432.031642,148.316052 C431.298718,148.080289 430.529539,147.974983 429.759644,148.005 C426.706079,147.905825 423.916065,149.920899 421.744035,151.872861 C420.660909,152.77729 419.514457,153.60433 418.313318,154.347751 C418.495078,154.221527 414.07377,157.232868 415.736873,157.264424 C416.925045,157.299033 418.073677,157.695666 419.026726,158.400439 C416.965217,161.555968 417.147673,165.661291 419.481125,168.624573 C418.75863,167.921326 417.958887,167.150459 417.140967,166.370576 C414.705385,163.994862 411.301932,160.807709 409.702446,159.937665 C407.071472,158.535679 403.313587,155.488274 403.313587,155.488274 C403.313587,155.488274 398.428792,158.193071 399.932854,161.948232 C400.650479,162.168487 401.350659,162.441217 402.027637,162.764179 C402.028034,163.263264 402.125224,163.757611 402.313908,164.220262 C403.858734,164.703981 405.321558,165.415163 406.653424,166.330004 C406.803998,166.537513 406.943537,166.752688 407.071472,166.974647 C407.721264,168.101646 409.743342,170.152784 412.215276,172.43383 C413.951082,174.160392 416.236712,176.225054 418.513254,178.213081 C417.827111,179.565479 417.104615,180.917878 416.977383,182.270277 C416.80194,182.20173 416.630514,182.123469 416.463912,182.035861 C413.083179,180.232663 405.194802,180.421999 405.194802,180.421999 C405.194802,180.421999 398.61964,177.013954 397.306425,169.300773 C397.306425,169.300773 395.99321,164.634997 396.365818,163.381774 L396.343098,163.381774 L396.511225,163.34571 L398.087992,160.510181 C398.289622,160.134103 398.284893,159.682168 398.075438,159.310324 C397.865983,158.938479 397.480483,158.697643 397.051961,158.670919 C389.36352,157.985703 389,164.982113 389,164.982113 L389.06816,164.982113 L389.04544,165.040717 C389.986047,169.526173 390.735806,169.165533 390.549503,172.753898 L393.553084,180.647398 C393.553084,180.647398 393.739388,183.352196 399.187639,186.927037 C404.63589,190.501877 410.833901,196.078268 410.833901,196.078268 C410.833901,196.078268 407.548592,197.782291 408.766383,205.585631 C410.256813,215.124551 408.016623,228.729682 408.016623,228.729682 L408.016623,237.520274 L408.434671,237.407574 C408.380143,237.700594 408.330159,238.011646 408.275631,238.349745 C407.582074,242.767116 407.494946,247.257342 408.016623,251.697921 C409.143534,261.029472 413.651178,273.787101 413.651178,273.787101 C413.651178,273.787101 415.341545,278.272556 415.718697,281.860921 C415.778301,282.571467 415.940513,283.26983 416.20036,283.934599 C417.047344,285.903825 417.495117,288.019257 417.518119,290.160141 C417.501789,295.537676 418.482966,300.872294 420.412644,305.897555 C422.316579,310.694063 423.025442,313.507052 423.234466,315.147962 C421.871267,316.897065 420.117285,318.803947 418.722278,318.993283 C416.091304,319.353923 411.020205,319.710054 414.400938,324.01519 C414.518205,324.163565 414.649021,324.300889 414.791721,324.425418 C412.224364,324.831137 409.402542,325.723721 412.147116,329.217417 C415.527849,333.522553 435.435095,331.548051 435.435095,331.548051 C435.435095,331.548051 435.562327,329.154306 435.435095,326.526144 C436.830102,326.431476 437.707093,326.345824 437.707093,326.345824 C437.707093,326.345824 438.270549,315.94137 435.830423,314.683639 C435.37931,314.732117 434.936395,314.838181 434.512664,314.999199 C434.249112,313.561148 434.058264,311.771474 433.921945,310.450631 L434.889816,310.378503 L434.889816,310.306375 L434.948888,310.306375 L434.948888,294.627565 C434.948888,294.627565 433.821977,284.939882 429.691484,280.652778 C429.160273,280.112829 428.702037,279.506688 428.328285,278.84958 L428.273757,278.73688 C428.301021,277.510705 428.301021,275.856271 428.273757,273.958404 L428.332829,273.85472 C428.405533,273.737513 428.478237,273.633829 428.546397,273.539161 C428.641991,273.412893 428.745175,273.292461 428.855389,273.178521 L428.914461,273.101885 C428.914461,273.101885 431.186459,270.397088 438.870356,253.365879 C443.564304,242.970441 442.323793,237.137094 440.642515,234.130261 C440.288083,232.777862 439.547412,229.748489 438.620436,224.559786 C438.240468,222.357747 438.059504,220.126441 438.079701,217.89246 C439.244172,218.181059 440.442208,218.314467 441.642194,218.289164 C443.525577,218.330976 445.392773,217.935797 447.094989,217.135117 C445.86811,215.358966 444.586703,213.276272 445.204687,211.23415 C445.904462,208.908024 448.6763,207.839629 450.275786,205.964303 C452.20244,203.696781 452.252424,200.46004 451.684425,197.588447 Z" fill="url(#linearGradient-2)"></path>
        <path d="M403.45735,157 C403.45735,157 398.853173,159.69222 400.271223,163.462238 C400.271223,163.462238 405.0549,164.899302 407.002476,168.487413 C408.950052,172.075524 424.005621,185 424.005621,185 L435,179.4382 C435,179.4382 431.181136,174.272048 419.100781,170.661199 C419.100781,170.661199 411.979116,162.930161 409.497527,161.48855 C407.015939,160.046938 403.45735,157 403.45735,157 Z" fill="#797C9C"></path>
        <path d="M406.45735,159 C406.45735,159 401.853173,161.69222 403.271223,165.462238 C403.271223,165.462238 408.0549,166.899302 410.002476,170.487413 C411.950052,174.075524 427.005621,187 427.005621,187 L438,181.4382 C438,181.4382 434.181136,176.272048 422.100781,172.661199 C422.100781,172.661199 414.979116,164.930161 412.497527,163.48855 C410.015939,162.046938 406.45735,159 406.45735,159 Z" fill="#000000" opacity="0.05"></path>
        <path d="M6.96685033,291.23067 C6.96685033,291.23067 -18.7611434,306.890828 28.6656421,331 C28.6656421,331 39.1156874,311.428178 27.5635237,295.470932 C22.9210444,289.033374 14.2399342,287.115168 7.35504586,291.005603 L6.96685033,291.23067 Z" fill="#EB4242"></path>
        <path d="M7,291 C7,291 29.6059395,307.951055 28.98754,331" stroke="#535461"></path>
        <path d="M30.1837293,331 C30.1837293,331 22.1048281,303.098305 31.6859489,282.595853 C35.7643102,274.014336 36.9942582,264.319473 35.1911279,254.966857 C34.300164,250.534148 33.0116343,246.193727 31.3416902,242" stroke="#535461" stroke-width="2"></path>
        <path d="M36.9955931,230.025038 C36.9955931,233.352859 30.9977965,243 30.9977965,243 C30.9977965,243 25,233.352859 25,230.025038 C25,226.697501 27.6862915,224 31,224 C34.3137085,224 37,226.697501 37,230.025038 L36.9955931,230.025038 Z" fill="#EB4242"></path>
        <path d="M48.0377007,248.343547 C46.2382052,251.150765 36,256 36,256 C36,256 36.1847893,244.566482 37.9842847,241.763713 C39.1474739,239.947803 41.1803902,238.897312 43.3172536,239.00795 C45.4541171,239.118587 47.3702874,240.373545 48.3439616,242.300091 C49.3176359,244.226638 49.2008899,246.532086 48.0377007,248.347996 L48.0377007,248.343547 Z" fill="#EB4242"></path>
        <path d="M47.6139554,280.210643 C44.5789928,281.68246 33,280.644808 33,280.644808 C33,280.644808 39.0337408,271.093196 42.0687034,269.634404 C45.1050324,268.164539 48.8078101,269.33569 50.3390891,272.250243 C51.8703681,275.164797 50.6502842,278.71907 47.6139554,280.188935 L47.6139554,280.210643 Z" fill="#EB4242"></path>
        <path d="M41.4773246,305.073601 C38.7345413,307.089164 27,308 27,308 C27,308 31.3107411,297.218768 34.076381,295.203205 C35.8638857,293.899147 38.2209142,293.634791 40.2595965,294.509718 C42.2982789,295.384645 43.7088907,297.265932 43.9600683,299.444916 C44.2112459,301.623901 43.2648294,303.769543 41.4773246,305.073601 Z" fill="#EB4242"></path>
        <path d="M21.9168334,257.300801 C24.4039981,259.608562 36,262 36,262 C36,262 33.1621404,250.989694 30.6703613,248.699551 C29.0605342,247.204781 26.7374669,246.643252 24.5762363,247.226485 C22.4150057,247.809719 20.7439542,249.449108 20.1925507,251.527111 C19.6411472,253.605114 20.2931631,255.806032 21.9029902,257.300801 L21.9168334,257.300801 Z" fill="#EB4242"></path>
        <path d="M16.3860449,285.210644 C19.4210074,286.68246 31,285.644808 31,285.644808 C31,285.644808 24.9662593,276.093196 21.9312968,274.634404 C18.8949678,273.164539 15.1921899,274.33569 13.6609109,277.250243 C12.1296318,280.164797 13.3497159,283.71907 16.3860449,285.188935 L16.3860449,285.210644 Z" fill="#EB4242"></path>
        <path d="M13.5229383,314.073674 C16.2656718,316.089187 28,317 28,317 C28,317 23.6893372,306.219038 20.9237476,304.203525 C18.1605548,302.187677 14.263817,302.763017 12.2201399,305.488584 C10.1764629,308.21415 10.7597456,312.057826 13.5229383,314.073674 Z" fill="#EB4242"></path>
        <path d="M36.9955931,230.025038 C36.9955931,233.352859 30.9977965,243 30.9977965,243 C30.9977965,243 25,233.352859 25,230.025038 C25,226.697501 27.6862915,224 31,224 C34.3137085,224 37,226.697501 37,230.025038 L36.9955931,230.025038 Z" fill="#000000" opacity="0.25"></path>
        <path d="M48.0377007,248.343547 C46.2382052,251.150765 36,256 36,256 C36,256 36.1847893,244.566482 37.9842847,241.763713 C39.1474739,239.947803 41.1803902,238.897312 43.3172536,239.00795 C45.4541171,239.118587 47.3702874,240.373545 48.3439616,242.300091 C49.3176359,244.226638 49.2008899,246.532086 48.0377007,248.347996 L48.0377007,248.343547 Z" fill="#000000" opacity="0.25"></path>
        <path d="M47.6139554,280.210643 C44.5789928,281.68246 33,280.644808 33,280.644808 C33,280.644808 39.0337408,271.093196 42.0687034,269.634404 C45.1050324,268.164539 48.8078101,269.33569 50.3390891,272.250243 C51.8703681,275.164797 50.6502842,278.71907 47.6139554,280.188935 L47.6139554,280.210643 Z" fill="#000000" opacity="0.25"></path>
        <path d="M41.4773246,305.073601 C38.7345413,307.089164 27,308 27,308 C27,308 31.3107411,297.218768 34.076381,295.203205 C35.8638857,293.899147 38.2209142,293.634791 40.2595965,294.509718 C42.2982789,295.384645 43.7088907,297.265932 43.9600683,299.444916 C44.2112459,301.623901 43.2648294,303.769543 41.4773246,305.073601 Z" fill="#000000" opacity="0.25"></path>
        <path d="M21.9168334,257.300801 C24.4039981,259.608562 36,262 36,262 C36,262 33.1621404,250.989694 30.6703613,248.699551 C29.0605342,247.204781 26.7374669,246.643252 24.5762363,247.226485 C22.4150057,247.809719 20.7439542,249.449108 20.1925507,251.527111 C19.6411472,253.605114 20.2931631,255.806032 21.9029902,257.300801 L21.9168334,257.300801 Z" fill="#000000" opacity="0.25"></path>
        <path d="M16.3860449,285.210644 C19.4210074,286.68246 31,285.644808 31,285.644808 C31,285.644808 24.9662593,276.093196 21.9312968,274.634404 C18.8949678,273.164539 15.1921899,274.33569 13.6609109,277.250243 C12.1296318,280.164797 13.3497159,283.71907 16.3860449,285.188935 L16.3860449,285.210644 Z" fill="#000000" opacity="0.25"></path>
        <path d="M13.5229383,314.073674 C16.2656718,316.089187 28,317 28,317 C28,317 23.6893372,306.219038 20.9237476,304.203525 C18.1605548,302.187677 14.263817,302.763017 12.2201399,305.488584 C10.1764629,308.21415 10.7597456,312.057826 13.5229383,314.073674 Z" fill="#000000" opacity="0.25"></path>
        <path d="M49.1768496,332 C49.1768496,332 41.1070021,304.116485 50.6907834,283.595853 C54.7645743,275.014336 55.993144,265.319473 54.1920344,255.966857 C53.302069,251.534148 52.0149832,247.193727 50.3469106,243" stroke="#535461" stroke-width="2"></path>
        <path d="M55.9955931,230.025038 C55.9955931,233.352859 49.9977965,243 49.9977965,243 C49.9977965,243 44,233.352859 44,230.025038 C44,226.697501 46.6862915,224 50,224 C53.3137085,224 56,226.697501 56,230.025038 L55.9955931,230.025038 Z" fill="#EB4242"></path>
        <path d="M66.0370517,249.343858 C64.2376532,252.150962 54,257 54,257 C54,257 54.1847793,245.566947 55.9841777,242.764292 C57.7822155,239.957253 61.4902255,239.155581 64.26625,240.973707 C67.0422744,242.791832 67.8350894,246.541268 66.0370517,249.348307 L66.0370517,249.343858 Z" fill="#EB4242"></path>
        <path d="M66.6068146,281.210484 C63.573335,282.682598 52,281.644736 52,281.644736 C52,281.644736 58.0307925,272.091191 61.0642722,270.632104 C63.0315108,269.681076 65.3775156,269.810403 67.2185693,270.97137 C69.0596229,272.132336 70.1160256,274.148564 69.9898406,276.26056 C69.8636555,278.372555 68.5740533,280.259455 66.6068146,281.210484 Z" fill="#EB4242"></path>
        <path d="M60.4773245,305.073601 C57.7345412,307.089164 46,308 46,308 C46,308 50.3107411,297.218768 53.0763809,295.203205 C54.8638856,293.899147 57.2209141,293.634791 59.2595965,294.509718 C61.2982789,295.384645 62.7088908,297.265932 62.9600683,299.444916 C63.2112459,301.623901 62.2648293,303.769543 60.4773245,305.073601 Z" fill="#EB4242"></path>
        <path d="M40.9168333,257.300801 C43.4039981,259.608562 55,262 55,262 C55,262 52.1621404,250.989694 49.6703612,248.69955 C48.0605342,247.204781 45.7374668,246.643252 43.5762363,247.226485 C41.4150057,247.809719 39.7439542,249.449108 39.1925507,251.527111 C38.6411472,253.605114 39.293163,255.806032 40.9029901,257.300801 L40.9168333,257.300801 Z" fill="#EB4242"></path>
        <path d="M34.3860449,286.210644 C37.4210074,287.68246 49,286.644808 49,286.644808 C49,286.644808 42.9662593,277.093196 39.9312968,275.634404 C36.8949678,274.164539 33.1921899,275.33569 31.6609109,278.250243 C30.1296318,281.164797 31.3497159,284.71907 34.3860449,286.188935 L34.3860449,286.210644 Z" fill="#EB4242"></path>
        <path d="M32.5229383,314.073674 C35.2656718,316.089187 47,317 47,317 C47,317 42.6893372,306.219038 39.9237476,304.203525 C37.1605548,302.187677 33.263817,302.763017 31.2201399,305.488584 C29.1764629,308.21415 29.7597456,312.057826 32.5229383,314.073674 Z" fill="#EB4242"></path>
        <rect id="Rectangle" fill="#EB4242" x="11" y="331" width="431" height="3"></rect>
        <rect id="Rectangle" fill="url(#linearGradient-3)" x="316" y="154" width="91" height="112"></rect>
        <rect id="Rectangle" fill="#EB4242" x="317" y="156" width="88" height="109"></rect>
        <rect id="Rectangle" fill="#E8EAF1" x="323" y="165" width="18" height="18"></rect>
        <rect id="Rectangle" fill="#E8EAF1" x="332" y="194" width="64" height="4"></rect>
        <rect id="Rectangle" fill="#E8EAF1" x="332" y="202" width="64" height="4"></rect>
        <rect id="Rectangle" fill="#E8EAF1" x="332" y="209" width="64" height="4"></rect>
        <rect id="Rectangle" fill="#E8EAF1" x="332" y="217" width="64" height="4"></rect>
        <rect id="Rectangle" fill="#E8EAF1" x="332" y="225" width="64" height="4"></rect>
        <rect id="Rectangle" fill="#E8EAF1" x="332" y="232" width="64" height="4"></rect>
        <rect id="Rectangle" fill="#E8EAF1" x="332" y="240" width="64" height="4"></rect>
        <path d="M432.525293,309 C432.525293,309 433.052679,316.715556 433.937616,317.595556 C434.822553,318.475556 426,319 426,319 L427.233548,309 L432.525293,309 Z" fill="#FFB9B9"></path>
        <path d="M432.525293,309 C432.525293,309 433.052679,316.715556 433.937616,317.595556 C434.822553,318.475556 426,319 426,319 L427.233548,309 L432.525293,309 Z" fill="#000000" opacity="0.05"></path>
        <path d="M434.181525,315.578281 C434.181525,315.578281 432.946876,315.578281 428.531666,317.970067 C428.531666,317.970067 425.530038,317.41991 424.29539,313 C424.29539,313 420.586971,319.625202 418.117674,319.993528 C415.648377,320.361854 410.87977,320.730179 414.055859,325.145427 C417.231948,329.560674 435.948504,327.537213 435.948504,327.537213 C435.948504,327.537213 436.471888,316.86509 434.181525,315.578281 Z" fill="#E4E2F3"></path>
        <path d="M434.181525,315.578281 C434.181525,315.578281 432.946876,315.578281 428.531666,317.970067 C428.531666,317.970067 425.530038,317.41991 424.29539,313 C424.29539,313 420.586971,319.625202 418.117674,319.993528 C415.648377,320.361854 410.87977,320.730179 414.055859,325.145427 C417.231948,329.560674 435.948504,327.537213 435.948504,327.537213 C435.948504,327.537213 436.471888,316.86509 434.181525,315.578281 Z" fill="#000000" opacity="0.05"></path>
        <path d="M432,321.577038 L430.812052,325 L423,322.658694 L423.430416,319.263116 L423.53802,318.441605 L423.835007,316.15963 C423.835007,316.15963 430.45911,314.356871 430.45911,315.246841 C430.5469,315.989637 430.690835,316.723752 430.889527,317.4421 C431.160689,318.55114 431.500717,319.81079 431.750359,320.636865 C431.8967,321.216486 432,321.577038 432,321.577038 Z" fill="#FFB9B9"></path>
        <path d="M427.674166,275.215158 C426.75364,276.75113 426.75364,278.661127 427.674166,280.197099 C428.029695,280.842584 428.466901,281.440696 428.975241,281.977011 C432.951767,286.266009 434.037523,295.917388 434.037523,295.917388 L434.037523,311.465574 L431.325423,311.66938 L426.986978,312 L420.477021,285.545892 C420.477021,285.545892 416.679164,266.243135 418.488758,262.846357 C420.298352,259.449579 421.924696,238.181219 421.924696,238.181219 L423.427347,236.645875 L426.986978,233 L437.294792,233 C438.11955,233.584154 438.804534,234.340181 439.30138,235.214699 C441.033093,238.045348 442.586137,243.933096 437.839961,254.802786 C430.427498,271.782148 428.255985,274.463338 428.255985,274.463338 C428.03345,274.690995 427.83822,274.943269 427.674166,275.215158 Z" fill="#4C4C78"></path>
        <path d="M427.674166,275.215158 C426.75364,276.75113 426.75364,278.661127 427.674166,280.197099 C428.029695,280.842584 428.466901,281.440696 428.975241,281.977011 C432.951767,286.266009 434.037523,295.917388 434.037523,295.917388 L434.037523,311.465574 L431.325423,311.66938 L426.986978,312 L420.477021,285.545892 C420.477021,285.545892 416.679164,266.243135 418.488758,262.846357 C420.298352,259.449579 421.924696,238.181219 421.924696,238.181219 L423.427347,236.645875 L426.986978,233 L437.294792,233 C438.11955,233.584154 438.804534,234.340181 439.30138,235.214699 C441.033093,238.045348 442.586137,243.933096 437.839961,254.802786 C430.427498,271.782148 428.255985,274.463338 428.255985,274.463338 C428.03345,274.690995 427.83822,274.943269 427.674166,275.215158 Z" fill="#000000" opacity="0.05"></path>
        <path d="M431,317.148637 L423,318 L423.322996,316.010834 C423.322996,316.010834 430.527209,314.439393 430.527209,315.215168 C430.622977,315.86947 430.781094,316.516083 431,317.148637 Z" fill="#000000" opacity="0.1"></path>
        <path d="M427.15613,251.947051 C427.15613,251.947051 427.611009,266.000774 427.674692,274.830148 C427.674692,276.829423 427.674692,278.557302 427.674692,279.805718 C427.684967,280.461582 427.636253,281.117046 427.529131,281.764283 C426.992374,283.370035 428.065888,286.938875 428.065888,286.938875 C430.759649,293.99359 431.862174,301.550573 431.295527,309.075637 L431.295527,316.927991 L422.680122,318 C422.680122,318 424.117539,316.927991 420.164642,306.574283 C418.316402,301.558652 417.37844,296.256534 417.39443,290.914808 C417.373608,288.788408 416.945996,286.685377 416.134416,284.717962 C415.887564,284.054664 415.734477,283.36051 415.679537,282.655362 C415.320183,279.086522 413.705363,274.622079 413.705363,274.622079 C413.705363,274.622079 409.39766,261.956992 408.319598,252.666247 C407.82174,248.24752 407.905845,243.783084 408.569781,239.385999 C408.728134,238.269103 408.943724,237.160973 409.215709,236.065937 C409.215709,236.065937 426.764934,225.083498 433.392519,232.673503 C434.030759,233.416615 434.536865,234.262529 434.88907,235.174858 C435.252848,236.075566 435.535971,237.006443 435.735145,237.956654 C437.795746,248.020874 427.15613,251.947051 427.15613,251.947051 Z" fill="#4C4C78"></path>
        <circle id="Oval" fill="#FFB9B9" cx="426" cy="165" r="9"></circle>
        <path d="M421.59059,170.631263 C421.59059,170.631263 425.419341,181.306817 421.59059,186.919737 C417.761839,192.532657 433.80195,190.721298 433.80195,190.721298 L440,183.301605 C440,183.301605 432.707361,183.301605 432.342498,170.631263 C431.977635,157.960921 421.59059,170.631263 421.59059,170.631263 Z" fill="#FFB9B9"></path>
        <path d="M439,236.670909 C437.706027,237.099745 436.375337,237.41903 435.023205,237.625099 C432.80181,237.954728 430.177758,237.96774 428.644046,236.670909 C427.7392,235.90322 425.477087,235.803464 422.803269,236.055023 C417.134413,236.57549 409.465849,238.600975 408,239 C408.157498,237.929036 408.371924,236.866479 408.64244,235.816476 C408.64244,235.816476 426.096906,225.285689 432.688704,232.563555 L436.498103,232.563555 C437.312594,233.12297 437.989052,233.846978 438.479714,234.684459 C438.809982,236.046349 439,236.670909 439,236.670909 Z" fill="#000000" opacity="0.1"></path>
        <path d="M432,321.420048 L430.812052,325 L423,322.551313 L423.430416,319 C424.773314,322.293556 427.063128,322.742243 427.063128,322.742243 C428.554882,321.827011 430.119625,321.066427 431.737446,320.470167 C431.8967,321.042959 432,321.420048 432,321.420048 Z" fill="#000000" opacity="0.1"></path>
        <path d="M432.180688,320.578281 C432.180688,320.578281 430.946088,320.578281 426.531052,322.970067 C426.531052,322.970067 423.529543,322.41991 422.294943,318 C422.294943,318 418.586671,324.625202 416.117471,324.993528 C413.648272,325.361854 408.879854,325.730179 412.055817,330.145427 C415.23178,334.560674 433.947597,332.537213 433.947597,332.537213 C433.947597,332.537213 434.475433,321.86509 432.180688,320.578281 Z" fill="#E4E2F3"></path>
        <path d="M390,166 C390,166 390.357191,159.400157 397.848928,160.044254 C398.269356,160.083743 398.641655,160.312723 398.843882,160.656196 C399.046109,160.999669 399.052213,161.413387 398.860196,161.761845 L397.324738,164.436992 L390,166 Z" fill="#FFB9B9"></path>
        <path d="M432.365821,184.758723 C432.365821,184.758723 423.571628,183.338357 421.238938,181.567393 C421.238938,181.567393 419.442813,184.938516 416.214335,183.163058 C412.985856,181.3876 405.446677,181.567393 405.446677,181.567393 C401.44789,179.146043 398.70009,175.137298 397.907498,170.568541 C397.907498,170.568541 396.652484,165.956844 396.998068,164.72526 C396.998068,164.72526 392.332689,159.93377 390,166.320925 C390.909431,170.757324 391.614239,170.402232 391.4369,173.962138 L394.306154,181.765166 C394.306154,181.765166 394.483492,184.426106 399.689982,187.972528 C404.896472,191.51895 410.816865,197.020623 410.816865,197.020623 C410.816865,197.020623 407.674782,198.706185 408.8434,206.42381 C410.271206,215.862956 408.12495,229.306996 408.12495,229.306996 L408.12495,238 C408.12495,238 426.072562,232.857913 429.119154,235.514358 C432.165746,238.170804 439.527586,235.514358 439.527586,235.514358 C439.527586,235.514358 438.618156,232.498326 437.372236,225.225689 C436.126316,217.953052 437.549575,210.842229 437.549575,210.842229 C437.549575,210.842229 442.214953,198.602804 444.370304,193.636015 C446.525654,188.669226 442.756065,181.949454 438.986475,179.445833 C435.216886,176.942212 433.816363,178.452475 433.816363,178.452475 C433.816363,178.452475 440.441564,183.163058 432.365821,184.758723 Z" fill="#797C9C"></path>
        <path d="M409,210.984002 C409,210.984002 410.414822,210.578717 417.502406,209.314869 C424.58999,208.05102 437,211 437,211" fill="#000000" opacity="0.05"></path>
        <path d="M415.353374,159.259117 C419.380223,159.345102 422.360092,164.368464 420.574855,167.99343 C419.791857,169.586424 418.275077,170.989344 418.431677,172.758835 C418.503265,173.564383 418.928321,174.292997 419.111767,175.080442 C419.957405,178.700883 415.675522,182.090521 416.655389,185.665706 C416.989882,186.624414 417.510101,187.505997 418.185591,188.258846 L425.62184,197.73535 C426.0734,198.256881 426.44722,198.842331 426.731461,199.473161 C427.014877,200.371295 427.12426,201.316314 427.053609,202.256375 C427.017814,206.781926 427.308643,211.637842 429.948466,215.308063 C433.120728,219.71595 439.586059,221.299893 444.395907,218.842519 C443.241543,217.073028 442.037963,215.000326 442.606196,212.959303 C443.263915,210.646746 445.867944,209.578716 447.371301,207.714189 C449.187858,205.451414 449.2326,202.238273 448.713584,199.38265 C448.194568,196.527028 447.152062,193.734763 447.12969,190.829359 C447.093896,186.10921 449.48316,180.624242 446.337743,177.139568 C445.617384,176.343071 444.659889,175.754749 444.122976,174.822486 C443.718381,174.013451 443.527271,173.11242 443.568166,172.206718 C443.518949,166.703648 446.404857,161.105542 444.673312,155.887581 C444.34324,154.726541 443.647242,153.706334 442.691207,152.982178 C440.239303,151.31225 436.838853,152.932397 434.002161,152.077068 C432.659878,151.683345 431.554731,150.769183 430.243768,150.321154 C426.709089,149.112832 423.438393,151.538527 420.995438,153.86466 C419.979738,154.762302 418.90165,155.585049 417.769484,156.32656 C417.943981,156.231523 413.787377,159.227438 415.353374,159.259117 Z" fill="#000000" opacity="0.1"></path>
        <path d="M416.353374,159.259117 C420.380223,159.345102 423.360092,164.368464 421.574855,167.99343 C420.791857,169.586424 419.275077,170.989344 419.431677,172.758835 C419.503265,173.564383 419.928321,174.292997 420.111767,175.080442 C420.957405,178.700883 416.675522,182.090521 417.655389,185.665706 C417.989882,186.624414 418.510101,187.505997 419.185591,188.258846 L426.62184,197.73535 C427.0734,198.256881 427.44722,198.842331 427.731461,199.473161 C428.014877,200.371295 428.12426,201.316314 428.053609,202.256375 C428.017814,206.781926 428.308643,211.637842 430.948466,215.308063 C434.120728,219.71595 440.586059,221.299893 445.395907,218.842519 C444.241543,217.073028 443.037963,215.000326 443.606196,212.959303 C444.263915,210.646746 446.867944,209.578716 448.371301,207.714189 C450.187858,205.451414 450.2326,202.238273 449.713584,199.38265 C449.194568,196.527028 448.152062,193.734763 448.12969,190.829359 C448.093896,186.10921 450.48316,180.624242 447.337743,177.139568 C446.617384,176.343071 445.659889,175.754749 445.122976,174.822486 C444.718381,174.013451 444.527271,173.11242 444.568166,172.206718 C444.518949,166.703648 447.404857,161.105542 445.673312,155.887581 C445.34324,154.726541 444.647242,153.706334 443.691207,152.982178 C441.239303,151.31225 437.838853,152.932397 435.002161,152.077068 C433.659878,151.683345 432.554731,150.769183 431.243768,150.321154 C427.709089,149.112832 424.438393,151.538527 421.995438,153.86466 C420.979738,154.762302 419.90165,155.585049 418.769484,156.32656 C418.943981,156.231523 414.787377,159.227438 416.353374,159.259117 Z" fill="#B36362"></path>
        <path d="M279.324979,244.98745 C278.29144,244.022192 277.393522,242.921466 276.655722,241.7153 C275.09301,239.26006 272.477951,237.93766 270.684896,237.278717 L270.684896,236.479861 L270.793293,236.479861 L270.743611,235.739678 L270.793293,235.739678 L270.66683,233.780901 L270.030003,223.996046 C270.030003,223.996046 267.726583,217.438207 271.791441,211.435505 C275.8563,205.432803 272.044366,199.673819 268.223399,197.421678 C268.223399,197.421678 266.416795,187.912134 267.970474,185.659992 C265.894012,184.45585 263.752978,183.366504 261.55703,182.396869 C261.523909,182.279523 261.492294,182.159168 261.462184,182.035804 C261.421535,181.133142 261.367337,180.262074 261.317655,179.377465 C261.369822,178.920726 261.454342,178.46826 261.57058,178.023472 C261.620262,177.838426 261.67446,177.648867 261.733174,177.454795 C265.476466,176.004367 267.95061,172.413044 267.970474,168.401095 C267.971295,167.254635 267.766311,166.117324 267.365262,165.043193 C267.563371,164.710215 267.71531,164.351893 267.816913,163.978052 C268.017393,162.897962 267.801158,161.782075 267.211701,160.854841 C266.200002,158.598187 263.648174,156.535604 261.791889,155.781881 C259.140698,154.698687 255.148103,154.955946 252.388516,155.285417 C250.839353,155.470463 249.068881,155.994007 248.508834,157.424726 C248.360257,157.96673 248.242638,158.516737 248.156546,159.072084 C247.578433,161.256526 245.07177,162.276534 243.522607,163.946459 C242.167655,165.422311 241.553409,167.417194 241.110791,169.36243 C239.839302,174.936372 239.533774,180.686925 240.207489,186.364069 C240.365567,187.672928 240.573327,188.972762 240.794636,190.272595 C239.864235,191.581455 239.024164,193.883243 239.408067,197.945222 L236.35039,212.460026 L235.076734,220.967615 C234.727346,223.381723 235.584675,225.813597 237.371121,227.475808 C239.322253,229.389451 241.688905,232.625494 243.147737,234.724183 C242.51183,236.580045 242.197189,238.530658 242.217336,240.492193 C242.248952,241.394855 242.298633,242.247871 242.361864,243.069293 C242.492901,244.800716 242.820185,246.511682 243.337431,248.169333 C243.694235,251.662635 244.403327,256.130812 245.785379,259.001277 L246.295744,274.26529 C246.295744,274.26529 245.532454,288.279117 244.001357,291.032236 C242.470261,293.785355 247.316476,317.060494 247.316476,317.060494 L247.316476,320.314591 L246.498987,322.697618 L246.295744,322.544166 C242.470261,327.301194 246.295744,329.052358 246.295744,329.052358 C246.295744,329.052358 247.334542,329.102005 249.00565,329.165191 C248.713299,330.534226 249.383617,331.927721 250.63611,332.554687 C250.63611,332.554687 272.315356,333.556642 276.136324,332.554687 C279.957291,331.552732 278.941076,328.041377 276.899614,328.298636 C275.866651,328.334725 274.834869,328.19898 273.846453,327.896951 C275.038812,326.502338 274.085828,324.611261 272.568281,324.796307 C270.526819,325.044539 265.938045,323.230189 265.938045,323.230189 L265.938045,323.261782 C265.790765,323.206397 265.639861,323.161158 265.486394,323.126383 C263.781535,322.738966 262.097677,322.264445 260.441453,321.70469 C259.456853,319.596974 257.189566,313.928257 258.815509,309.518753 C259.5517,307.532897 259.791075,304.888098 259.791075,302.324538 C259.829765,294.59526 260.959487,286.910088 263.146842,279.496217 L266.204519,268.993745 C266.204519,268.993745 270.540368,256.230104 270.793293,252.745829 L270.757161,247.636763 C274.343269,249.943064 277.18867,249.243501 279.008824,248.173846 C279.561755,247.85864 279.927589,247.295261 279.990398,246.66224 C280.053207,246.029219 279.805204,245.405022 279.324979,244.98745 Z M245.293079,218.440161 C245.378893,218.074583 245.451157,217.672899 245.514388,217.253161 C246.116589,217.253161 246.718791,217.253161 247.320992,217.253161 C248.066939,218.781104 248.379365,220.484183 248.224294,222.177182 C246.842242,221.725851 244.773681,220.651683 245.293079,218.440161 Z" id="Shape" fill="url(#linearGradient-4)" fill-rule="nonzero"></path>
        <path d="M247.96424,319.056031 L247,322.12361 L250.137114,325.445252 L260.517139,328 L268,327.233105 L267.515658,324.41018 C267.222927,323.179298 266.305684,322.22444 265.138383,321.935415 C262.063479,321.16852 256.198053,319.427716 254.962759,317 L247.96424,319.056031 Z" fill="#DB8B8B"></path>
        <path d="M247.96424,319.056031 L247,322.12361 L250.137114,325.445252 L260.517139,328 L268,327.233105 L267.515658,324.41018 C267.222927,323.179298 266.305684,322.22444 265.138383,321.935415 C262.063479,321.16852 256.198053,319.427716 254.962759,317 L247.96424,319.056031 Z" fill="#000000" opacity="0.1"></path>
        <path d="M265.777577,326.024227 L264.287661,324.006186 L265.777577,321.686598 C265.777577,321.686598 270.247326,323.519072 272.230834,323.263918 C274.214342,323.008763 275.210667,326.539175 271.485876,327.550515 C267.761086,328.561856 246.655462,327.550515 246.655462,327.550515 C246.655462,327.550515 242.930672,325.787629 246.655462,321 L249.882091,323.519072 C249.882091,323.519072 255.366445,326.543814 258.07663,326.038144 L265.777577,326.024227 Z" fill="#474463"></path>
        <path d="M272,330.231791 L264.513971,331 L254.138442,328.422022 L251,325.122965 L251.257832,324.307626 L251.617909,323.167095 L251.969094,322.050129 L258.970576,320 C259.32549,320.613392 259.811197,321.129947 260.388654,321.508141 C262.664691,323.157669 266.75,324.335904 269.146063,324.943873 C269.247083,324.968743 269.346554,325.000223 269.443903,325.038132 C270.475457,325.405128 271.259603,326.303972 271.524344,327.422879 L272,330.231791 Z" fill="#DB8B8B"></path>
        <path d="M272,330.311268 L264.513971,331 L254.138442,328.688732 L251,325.730986 L251.257832,325 L254.142887,327.112676 C254.142887,327.112676 259.47735,329.867606 262.113463,329.407042 L269.599492,329.407042 L268.150296,327.569014 L269.452794,325.659155 C270.484347,325.988183 271.268494,326.794034 271.533235,327.797183 L272,330.311268 Z" fill="#000000" opacity="0.1"></path>
        <path d="M269.777577,330.024227 L268.287661,328.006186 L269.777577,325.686598 C269.777577,325.686598 274.247326,327.519072 276.230834,327.263918 C278.214342,327.008763 279.210667,330.539175 275.485876,331.550515 C271.761086,332.561856 250.655462,331.550515 250.655462,331.550515 C250.655462,331.550515 246.930672,329.787629 250.655462,325 L253.882091,327.519072 C253.882091,327.519072 259.366445,330.543814 262.07663,330.038144 L269.777577,330.024227 Z" fill="#474463"></path>
        <path d="M264,186.864787 C264,186.864787 252,188.080216 253.753067,183.222966 C254.241322,181.846598 254.36785,180.373591 254.121166,178.937683 C253.809835,177.156586 253.084391,175.467885 252,174 L263.25,175.698027 C262.576502,176.792648 262.063873,177.973328 261.726994,179.205792 C260.388037,184.357963 264,186.864787 264,186.864787 Z" fill="#DB8B8B"></path>
        <path d="M244,243 C244,243 244.239696,253.588034 246.663285,258.759672 L247.147115,273.780539 C247.147115,273.780539 246.423589,287.568553 244.976538,290.279017 C243.529486,292.989481 248.110336,315.887918 248.110336,315.887918 L248.110336,319.826703 C248.110336,319.826703 255.816107,322.772859 258,319.328122 L255.829423,290.025194 L256.792644,249.395426 L244,243 Z" fill="#474463"></path>
        <path d="M244,243 C244,243 244.239696,253.588034 246.663285,258.759672 L247.147115,273.780539 C247.147115,273.780539 246.423589,287.568553 244.976538,290.279017 C243.529486,292.989481 248.110336,315.887918 248.110336,315.887918 L248.110336,319.826703 C248.110336,319.826703 255.816107,322.772859 258,319.328122 L255.829423,290.025194 L256.792644,249.395426 L244,243 Z" fill="#000000" opacity="0.1"></path>
        <path d="M238.81227,209 L237.319962,212.964158 L236.074846,221.389703 C235.734445,223.770916 236.568003,226.169487 238.313308,227.83089 C241.297923,230.805148 245.275885,237 245.275885,237 L250,222.858586 C250,222.858586 245.275885,222.115021 246.022039,218.894428 C246.768192,215.673835 246.521,209.725318 246.521,209.725318 L238.81227,209 Z" fill="#CBCDDA"></path>
        <path d="M238.81227,209 L237.319962,212.964158 L236.074846,221.389703 C235.734445,223.770916 236.568003,226.169487 238.313308,227.83089 C241.297923,230.805148 245.275885,237 245.275885,237 L250,222.858586 C250,222.858586 245.275885,222.115021 246.022039,218.894428 C246.768192,215.673835 246.521,209.725318 246.521,209.725318 L238.81227,209 Z" fill="#000000" opacity="0.05"></path>
        <path d="M261,322.336234 C257.808511,326.915227 252.879939,324.313526 252,323.797349 L252.360182,322.810784 L259.541033,321 C259.905771,321.543771 260.405569,322.001525 261,322.336234 Z" fill="#000000" opacity="0.1"></path>
        <path d="M271,253.223608 C270.751547,256.659291 266.500248,269.164994 266.500248,269.164994 L263.505014,279.458498 C261.356442,286.737302 260.247767,294.273487 260.210717,301.851383 C260.210717,304.361553 259.976067,306.952988 259.253715,308.898821 C257.252291,314.316455 261.255138,321.652833 261.255138,321.652833 C257.753797,327.783788 251.758729,323.616725 251.758729,323.616725 L251.758729,319.693456 C251.758729,319.693456 247.010524,298.357009 248.257388,294.185432 C249.504252,290.013854 250.005758,278.731632 250.005758,278.731632 L250.005758,258.374875 C246.001298,254.459473 243.566293,249.26093 243.145706,243.729205 C243.085893,242.92559 243.039884,242.081342 243.007677,241.205491 C242.805234,235.670476 246.66085,229.18286 248.165368,226.871336 C248.528845,226.311514 248.754293,226 248.754293,226 L270.838966,234.57792 L270.889577,234.57792 L270.889577,235.417653 L270.889577,237.273192 L271,253.223608 Z" fill="#474463"></path>
        <path d="M263,175.7488 C262.341469,176.876153 261.840232,178.092137 261.510838,179.361454 C259.097097,180.300076 256.414893,180.200486 254.074029,179.085328 C253.769617,177.250973 253.060293,175.511777 252,174 L263,175.7488 Z" fill="#000000" opacity="0.1"></path>
        <circle id="Oval" fill="#DB8B8B" cx="258.5" cy="170.5" r="9.5"></circle>
        <path d="M270,236.713594 L269.8975,236.713594 C259.745592,238.907256 247,227.779576 247,227.779576 C247.343888,227.180442 247.641927,226.553491 247.8913,225.904651 C248.243364,225.323425 248.461732,225 248.461732,225 L269.852935,233.905894 L269.906413,234.796483 L270,236.713594 Z" fill="#000000" opacity="0.1"></path>
        <path d="M267.622227,186.727624 C267.622227,186.727624 253.793127,178.400766 249.347086,181.827086 L243.173543,189.662537 C243.173543,189.662537 239.223021,190.888799 239.964028,198.724251 L237,212.929952 L245.892084,215.134518 C245.892084,215.134518 251.079133,220.035057 246.878578,227.135653 C246.878578,227.135653 259.96667,237.910527 270.340768,235.701452 L269.577031,224.20074 C269.577031,224.20074 267.35401,217.834999 271.304531,211.956156 C275.255053,206.077313 271.550018,200.446427 267.844984,198.241861 C267.87226,198.241861 266.140213,188.93219 267.622227,186.727624 Z" fill="#CBCDDA"></path>
        <path d="M268.456779,237 C268.456779,237 273.482684,237.96388 275.874503,241.828281 C276.565445,242.988437 277.408503,244.049248 278.380849,244.981988 C278.822982,245.388634 279.049108,245.981688 278.991023,246.58228 C278.932938,247.182872 278.597442,247.720694 278.085725,248.033533 C276.187246,249.18397 273.090654,249.894664 269.17917,246.652121 C262.475027,241.104261 268.456779,237 268.456779,237 Z" fill="#DB8B8B"></path>
        <path d="M260.622363,192.183895 C260.622363,192.183895 255.689269,191.693458 254.459399,204.404314 C253.22953,217.115171 251.255384,220.048791 251.255384,220.048791 C251.255384,220.048791 250.020976,226.649438 252.979925,230.559432 C255.938874,234.469426 261.602628,242.779852 261.602628,242.779852 C261.602628,242.779852 267.765592,244.489631 269,238.379421 L261.357562,224.201754 C261.357562,224.201754 260.123154,219.310887 263.082103,215.891329 C266.041051,212.471771 268.264801,189.736211 260.622363,192.183895 Z" fill="#000000" opacity="0.1"></path>
        <path d="M261.622363,191.183661 C261.622363,191.183661 256.689269,190.693222 255.459399,203.404137 C254.22953,216.115052 252.255384,219.048686 252.255384,219.048686 C252.255384,219.048686 251.020976,225.649363 253.979925,229.559375 C256.938874,233.469387 262.602628,241.779851 262.602628,241.779851 C262.602628,241.779851 268.765592,243.489638 270,237.3794 L262.357562,223.201668 C262.357562,223.201668 261.127692,218.315277 264.082103,214.909202 C267.036513,211.503127 269.264801,188.735966 261.622363,191.183661 Z" fill="#CBCDDA"></path>
        <path d="M264.958936,200 C264.958936,200 265.39084,207.513664 263.453217,211.636364 C261.515594,215.759063 261.515594,221.090909 263.453217,224" fill="#000000" opacity="0.1"></path>
        <path d="M267,191 C267,191 264.998274,189.116883 259.250791,188.883117 C253.503307,188.649351 251,187 251,187" fill="#000000" opacity="0.1"></path>
        <path d="M253.331358,157.282297 C251.842877,157.468868 250.142399,157.983078 249.605644,159.393742 C249.46285,159.929981 249.34991,160.473861 249.267353,161.022831 C248.712555,163.184332 246.303922,164.208201 244.81544,165.83729 C243.50287,167.29346 242.92552,169.263839 242.497018,171.188712 C241.277052,176.698857 240.985806,182.37696 241.635503,187.984713 C242.113621,192.080189 243.09241,196.121058 243.363043,200.239287 C243.633676,204.357515 243.137516,208.689618 240.904794,212.14802 C239.944047,213.636043 238.681093,214.942045 238,216.580235 C239.407291,217.731519 241.342317,217.895338 243.155558,217.945394 C245.260481,218.018202 247.365404,218.018202 249.470328,217.945394 C250.575412,217.908989 251.725602,217.836181 252.686349,217.271915 C253.391765,216.818345 253.972062,216.192206 254.373295,215.451704 C255.577612,213.385764 255.884329,210.901175 255.830202,208.512148 C255.776076,206.12312 255.4017,203.738643 255.379147,201.340515 C255.356595,200.034513 255.455827,198.651152 256.200067,197.581778 C256.736823,196.808188 257.553232,196.289428 258.252368,195.666006 C260.877507,193.322483 261.775107,189.559196 261.860807,186.023435 C261.946508,182.487675 261.369157,178.947363 261.666854,175.425254 C261.784128,174.060096 262.29382,172.390052 263.637964,172.121571 C264.068803,172.103811 264.497355,172.049006 264.91896,171.957751 C265.996981,171.539103 265.893238,170.005575 266.199956,168.881594 C266.547268,167.621098 267.611758,166.647285 267.913965,165.373137 C268.61761,162.383439 264.846791,158.811274 262.37501,157.769203 C259.83557,156.699829 256.001603,156.959209 253.331358,157.282297 Z" fill="#000000" opacity="0.1"></path>
        <path d="M252.331358,157.284127 C250.842877,157.470693 249.142399,157.984887 248.605644,159.395509 C248.46285,159.931732 248.34991,160.475595 248.267353,161.024549 C247.712555,163.185985 245.303922,164.209823 243.81544,165.838863 C242.50287,167.294988 241.92552,169.265308 241.497018,171.190123 C240.277052,176.700102 239.985806,182.378034 240.635503,187.985618 C241.113621,192.08097 242.09241,196.121718 242.363043,200.239822 C242.633676,204.357927 242.137516,208.689899 239.904794,212.148197 C238.944047,213.636175 237.681093,214.942137 237,216.580278 C238.407291,217.731527 240.342317,217.895341 242.155558,217.945395 C244.260481,218.018202 246.365404,218.018202 248.470328,217.945395 C249.575412,217.908992 250.725602,217.836186 251.686349,217.271937 C252.391765,216.818381 252.972062,216.192261 253.373295,215.451781 C254.577612,213.385903 254.884329,210.901389 254.830202,208.512434 C254.776076,206.123478 254.4017,203.739073 254.379147,201.341017 C254.356595,200.035055 254.455827,198.651736 255.200067,197.582394 C255.736823,196.808827 256.553232,196.290083 257.252368,195.666679 C259.877507,193.323227 260.775107,189.560054 260.860807,186.024399 C260.946508,182.488745 260.369157,178.948541 260.666854,175.426538 C260.784128,174.06142 261.29382,172.391427 262.637964,172.122954 C263.068803,172.105195 263.497355,172.050392 263.91896,171.95914 C264.996981,171.540504 264.893238,170.007022 265.199956,168.883075 C265.547268,167.622617 266.611758,166.648833 266.913965,165.374723 C267.61761,162.385116 263.846791,158.813059 261.37501,157.771019 C258.817528,156.701677 254.983561,156.956499 252.331358,157.284127 Z" fill="#472727"></path>
    </g>
</svg>
