
<svg width="153px" height="42px" viewBox="0 0 153 42" version="1.1" xmlns="http://www.w3.org/2000/svg" xmlns:xlink="http://www.w3.org/1999/xlink">
    <g stroke="none" stroke-width="1" fill="none" fill-rule="evenodd">
        <path d="M17.108,1.104 C18.900009,1.104 20.2113292,1.5473289 21.042,2.434 C21.8726708,3.3206711 22.288,4.53865892 22.288,6.088 C22.288,7.41333996 22.0080028,8.9159916 21.448,10.596 C20.8879972,12.2760084 20.1460046,13.9046588 19.222,15.482 C18.2979954,17.0593412 17.3040053,18.5199933 16.24,19.864 C15.1759947,21.2080067 14.0840056,22.2906626 12.964,23.112 C11.8439944,23.9333374 10.8640042,24.344 10.024,24.344 L9.688,24.344 C8.62399468,24.344 7.7653366,24.1013358 7.112,23.616 C5.69332624,24.8106726 4.43333884,25.7159969 3.332,26.332 C4.32133828,25.8093307 5.47866004,25.4080014 6.804,25.128 C8.12933996,24.8479986 9.45466004,24.708 10.78,24.708 C12.0120062,24.708 13.1226617,24.8293321 14.112,25.072 C15.1013383,25.3146679 15.9179968,25.7159972 16.562,26.276 C17.2060032,26.8360028 17.5466665,27.5173293 17.584,28.32 C16.0159922,27.1253274 14.0373453,26.528 11.648,26.528 C10.0239919,26.528 8.40000812,26.7893307 6.776,27.312 C5.15199188,27.8346693 3.80800532,28.4879961 2.744,29.272 C2.63199944,29.197333 2.48733422,29.0900007 2.31,28.95 C2.13266578,28.8099993 1.89933478,28.5300021 1.61,28.11 C1.32066522,27.6899979 1.176,27.284002 1.176,26.892 C1.176,26.4626645 1.33466508,26.052002 1.652,25.66 C3.27600812,24.9879966 4.86265892,24.0640059 6.412,22.888 C5.92666424,22.1973299 5.684,21.3013388 5.684,20.2 C5.684,19.0239941 5.94999734,17.7500069 6.482,16.378 C7.01400266,15.0059931 7.6999958,13.7320059 8.54,12.556 C9.3800042,11.3799941 10.3833275,10.3860041 11.55,9.574 C12.7166725,8.76199594 13.8879941,8.33733352 15.064,8.3 C16.464007,8.31866676 17.164,8.8879944 17.164,10.008 C17.164,11.33334 16.2913421,13.199988 14.546,15.608 C12.8006579,18.016012 10.761345,20.2933226 8.428,22.44 C8.65200112,22.8880022 9.01599748,23.112 9.52,23.112 L9.548,23.112 C10.2573369,23.112 11.2186606,22.3886739 12.432,20.942 C13.6453394,19.4953261 14.8073278,17.7920098 15.918,15.832 C17.0286722,13.8719902 17.9946626,11.823344 18.816,9.686 C19.6373374,7.54865598 20.048,5.85467292 20.048,4.604 C20.048,3.24132652 19.544005,2.56 18.536,2.56 L18.48,2.56 C17.9199972,2.56 17.2013377,2.75599804 16.324,3.148 C15.4466623,3.54000196 14.4993384,4.08132988 13.482,4.772 C12.4646616,5.46267012 11.4473384,6.33532806 10.43,7.39 C9.41266158,8.44467194 8.49333744,9.58332722 7.672,10.806 C6.85066256,12.0286728 6.17866928,13.4193255 5.656,14.978 C5.13333072,16.5366745 4.872,18.1093254 4.872,19.696 C4.872,19.9573346 4.88133324,20.2279986 4.9,20.508 C3.966662,20.7693346 3.14533688,20.9 2.436,20.9 C1.27866088,20.9 0.466669,20.5266704 0,19.78 C0.01866676,17.6893229 0.41999608,15.6500099 1.204,13.662 C1.98800392,11.6739901 3.00532708,9.93800742 4.256,8.454 C5.50667292,6.96999258 6.88332582,5.66333898 8.386,4.534 C9.88867418,3.40466102 11.4006591,2.55066956 12.922,1.972 C14.4433409,1.39333044 15.8386603,1.104 17.108,1.104 Z M8.204,21.46 C10.3320106,19.5559905 12.1006596,17.4933444 13.51,15.272 C14.9193404,13.0506556 15.624,11.4640048 15.624,10.512 C15.624,10.1573316 15.5026679,9.98 15.26,9.98 C14.2893285,9.99866676 13.2346724,10.6893265 12.096,12.052 C10.9573276,13.4146735 10.019337,14.9779912 9.282,16.742 C8.54466298,18.5060088 8.176,19.9946606 8.176,21.208 C8.176,21.282667 8.18533324,21.3666662 8.204,21.46 Z M23.828,10.652 C23.902667,10.652 24.0006661,10.6613332 24.122,10.68 C24.2433339,10.6986668 24.4579985,10.745333 24.766,10.82 C25.0740015,10.894667 25.3446655,10.9786662 25.578,11.072 C25.8113345,11.1653338 26.0213324,11.2959992 26.208,11.464 C26.3946676,11.6320008 26.4786668,11.8186656 26.46,12.024 C25.918664,12.8266707 25.1346718,14.3853218 24.108,16.7 C23.2119955,18.6973433 22.764,20.0226634 22.764,20.676 C22.764,20.9373346 22.8386659,21.068 22.988,21.068 C23.2306679,21.068 23.6973299,20.5080056 24.388,19.388 C25.0786701,18.2679944 25.9513281,16.7933425 27.006,14.964 C28.0606719,13.1346575 28.9519964,11.7066718 29.68,10.68 C30.538671,10.68 31.1593314,10.8386651 31.542,11.156 C31.9246686,11.4733349 32.116,11.8373313 32.116,12.248 C32.116,12.3600006 32.0973335,12.4626662 32.06,12.556 C31.7799986,13.2093366 31.2806703,14.2173265 30.562,15.58 C29.8433297,16.9426735 29.2973352,18.1139951 28.924,19.094 C28.5506648,20.0740049 28.364,20.993329 28.364,21.852 L28.392,21.852 C28.4480003,21.852 28.5786656,21.7913339 28.784,21.67 C28.9893344,21.5486661 29.1853324,21.4226673 29.372,21.292 L29.624,21.096 C29.698667,21.1893338 29.6893338,21.4506645 29.596,21.88 C29.5586665,22.0666676 29.3860015,22.3279983 29.078,22.664 C28.7699985,23.0000017 28.4760014,23.2799989 28.196,23.504 L27.776,23.868 C27.1973304,23.8306665 26.6886689,23.5600025 26.25,23.056 C25.8113311,22.5519975 25.6013332,21.9826698 25.62,21.348 C25.9933352,20.2839947 26.3386651,19.3553373 26.656,18.562 C26.9733349,17.7686627 27.4166638,16.7186732 27.986,15.412 C28.5553362,14.1053268 29.0266648,13.0133377 29.4,12.136 C28.8773307,13.0133377 28.0840053,14.483323 27.02,16.546 C25.9559947,18.608677 25.0880034,20.1999944 24.416,21.32 C23.7439966,22.4400056 23.2493349,23 22.932,23 C22.857333,23 22.7546673,22.9953334 22.624,22.986 C22.4933327,22.9766666 22.2693349,22.9253338 21.952,22.832 C21.6346651,22.7386662 21.3546679,22.6173341 21.112,22.468 C20.8693321,22.3186659 20.6453344,22.0806683 20.44,21.754 C20.2346656,21.4273317 20.132,21.0493355 20.132,20.62 C20.132,20.4893327 20.1413332,20.3493341 20.16,20.2 C20.2720006,19.3973293 20.6313303,18.198008 21.238,16.602 C21.8446697,15.005992 22.4279972,13.6106726 22.988,12.416 L23.828,10.652 Z M37.548,10.764 C38.1080028,10.764 38.6166644,10.9366649 39.074,11.282 C39.5313356,11.6273351 39.8439992,11.9679983 40.012,12.304 L40.264,12.836 L40.236,12.836 C39.5266631,12.836 38.8360034,13.1206638 38.164,13.69 C37.4919966,14.2593362 36.9366689,14.9406627 36.498,15.734 C36.0593311,16.5273373 35.704668,17.3253293 35.434,18.128 C35.163332,18.9306707 35.028,19.5933307 35.028,20.116 C35.028,20.6013358 35.1399989,20.8533332 35.364,20.872 C35.5133341,20.8533332 36.091995,20.0040084 37.1,18.324 C38.108005,16.6439916 39.1393281,14.9640084 40.194,13.284 C41.2486719,11.6039916 41.9066654,10.764 42.168,10.764 C42.4293346,10.764 42.7513314,10.8713323 43.134,11.086 C43.5166686,11.3006677 43.8293321,11.5199989 44.072,11.744 L44.436,12.08 L43.176,14.6 C42.9333321,15.0853358 42.5553359,15.8833278 42.042,16.994 C41.5286641,18.1046722 41.1646677,19.028663 40.95,19.766 C40.7353323,20.503337 40.628,21.105331 40.628,21.572 L40.628,21.824 C40.628,21.8426668 40.6373332,21.852 40.656,21.852 C40.7120003,21.852 40.8426656,21.7913339 41.048,21.67 C41.2533344,21.5486661 41.4399992,21.4226673 41.608,21.292 L41.86,21.096 C41.9533338,21.1893338 41.9533338,21.4506645 41.86,21.88 C41.8226665,22.0666676 41.6500015,22.3279983 41.342,22.664 C41.0339985,23.0000017 40.7400014,23.2799989 40.46,23.504 L40.04,23.868 C38.639993,23.868 37.94,23.1213408 37.94,21.628 C37.94,20.8253293 38.1079983,19.9340049 38.444,18.954 C38.7800017,17.9739951 39.143998,17.1106704 39.536,16.364 C37.0533209,20.7880221 35.7186676,23 35.532,23 C34.4306612,23 33.6280025,22.7106696 33.124,22.132 C32.6199975,21.5533304 32.368,20.7693383 32.368,19.78 C32.368,18.6226609 32.6666637,17.3206739 33.264,15.874 C33.8613363,14.4273261 34.5659959,13.2140049 35.378,12.234 C36.1900041,11.2539951 36.9039969,10.764 37.52,10.764 L37.548,10.764 Z M56.056,4.772 C56.3733349,4.772 56.7233314,4.8186662 57.106,4.912 C57.4886686,5.0053338 57.8339985,5.1453324 58.142,5.332 C58.4500015,5.5186676 58.5946668,5.72399888 58.576,5.948 C58.183998,6.82533772 57.5540043,8.08532512 56.686,9.728 C55.8179957,11.3706749 55.0666698,12.8079938 54.432,14.04 C53.7973302,15.2720062 53.2186693,16.625326 52.696,18.1 C52.1733307,19.574674 51.912,20.8253282 51.912,21.852 L51.94,21.852 C51.9960003,21.852 52.1266656,21.7913339 52.332,21.67 C52.5373344,21.5486661 52.7333324,21.4226673 52.92,21.292 L53.172,21.096 C53.246667,21.1893338 53.2373338,21.4506645 53.144,21.88 C53.1066665,22.0666676 52.9340015,22.3279983 52.626,22.664 C52.3179985,23.0000017 52.0240014,23.2799989 51.744,23.504 L51.324,23.868 C50.7639972,23.8306665 50.2646689,23.5646691 49.826,23.07 C49.3873311,22.5753309 49.168,22.0200031 49.168,21.404 C49.168,21.0866651 49.2333327,20.694669 49.364,20.228 C49.4946673,19.761331 49.6253327,19.3553351 49.756,19.01 C49.8866673,18.6646649 50.1013318,18.1513367 50.4,17.47 C50.6986682,16.7886633 50.9133327,16.2893349 51.044,15.972 L46.956,23 C45.9666617,23 45.2433356,22.7106696 44.786,22.132 C44.3286644,21.5533304 44.1,20.7693383 44.1,19.78 C44.1,18.6039941 44.3846638,17.2926739 44.954,15.846 C45.5233362,14.3993261 46.2186626,13.1766717 47.04,12.178 C47.8613374,11.1793283 48.6079966,10.68 49.28,10.68 L49.336,10.68 C49.8400025,10.68 50.2646649,10.7499993 50.61,10.89 C50.9553351,11.0300007 51.2026659,11.2119989 51.352,11.436 C51.5013341,11.6600011 51.6039997,11.8606658 51.66,12.038 C51.7160003,12.2153342 51.744,12.3973324 51.744,12.584 L51.716,12.836 L51.688,12.836 C50.9786631,12.836 50.2786701,13.1253304 49.588,13.704 C48.8973299,14.2826696 48.3233356,14.9733293 47.866,15.776 C47.4086644,16.5786707 47.0400014,17.3813293 46.76,18.184 C46.4799986,18.9866707 46.34,19.6493307 46.34,20.172 C46.34,20.6200022 46.4519989,20.8533332 46.676,20.872 C46.8813344,20.8533332 47.4926616,20.1160073 48.51,18.66 C49.5273384,17.2039927 50.7686593,15.1646798 52.234,12.542 C53.6993407,9.91932022 54.9733279,7.32934612 56.056,4.772 Z M59.192,10.68 C59.266667,10.6986668 59.3599994,10.7173332 59.472,10.736 C59.5840006,10.7546668 59.7799986,10.7966663 60.06,10.862 C60.3400014,10.9273337 60.5873323,11.0066662 60.802,11.1 C61.0166677,11.1933338 61.2173324,11.3099993 61.404,11.45 C61.5906676,11.5900007 61.684,11.7439992 61.684,11.912 C61.684,11.9680003 61.6653335,12.033333 61.628,12.108 C60.2466598,15.0946816 59.1080045,17.6706558 58.212,19.836 L60.172,16.56 C62.6546791,12.6773139 64.399995,10.7266668 65.408,10.708 C66.1920039,10.708 66.7473317,10.8619985 67.074,11.17 C67.4006683,11.4780015 67.564,11.827998 67.564,12.22 C67.564,12.4066676 67.5360003,12.5839992 67.48,12.752 C67.4239997,12.9013341 67.1953353,13.3913292 66.794,14.222 C66.3926647,15.0526708 66.0053352,15.8553295 65.632,16.63 C65.2586648,17.4046705 65.072,17.829333 65.072,17.904 L65.1,17.904 C65.1560003,17.904 65.2866656,17.8433339 65.492,17.722 C65.6973344,17.6006661 65.8933324,17.4746673 66.08,17.344 L66.332,17.148 C66.406667,17.222667 66.3973338,17.4746645 66.304,17.904 C66.2666665,18.0906676 66.0940015,18.3519983 65.786,18.688 C65.4779985,19.0240017 65.1840014,19.3133321 64.904,19.556 L64.484,19.92 C63.8679969,19.8826665 63.326669,19.6773352 62.86,19.304 C62.393331,18.9306648 62.16,18.4546696 62.16,17.876 C62.16,17.7453327 62.2066662,17.5400014 62.3,17.26 C62.3933338,16.9799986 62.5099993,16.6720017 62.65,16.336 C62.7900007,15.9999983 62.9439992,15.6406686 63.112,15.258 C63.2800008,14.8753314 63.4526658,14.5066684 63.63,14.152 C63.8073342,13.7973316 63.9659993,13.4753348 64.106,13.186 C64.2460007,12.8966652 64.3626662,12.6633342 64.456,12.486 L64.596,12.22 C64.0919975,12.8920034 63.4573372,13.7459948 62.692,14.782 C61.9266628,15.8180052 60.8626735,17.3813229 59.5,19.472 C58.1373265,21.5626771 57.3626676,22.9999961 57.176,23.784 C57.101333,23.784 57.0033339,23.7746668 56.882,23.756 C56.7606661,23.7373332 56.5506682,23.6813338 56.252,23.588 C55.9533318,23.4946662 55.6873345,23.3873339 55.454,23.266 C55.2206655,23.1446661 55.0106676,22.9580013 54.824,22.706 C54.6373324,22.4539987 54.544,22.1693349 54.544,21.852 C54.544,21.5719986 54.6093327,21.2733349 54.74,20.956 L59.192,10.68 Z M72.772,10.764 C73.3320028,10.764 73.8406644,10.9366649 74.298,11.282 C74.7553356,11.6273351 75.0679992,11.9679983 75.236,12.304 L75.488,12.836 L75.46,12.836 C74.7506631,12.836 74.0600034,13.1206638 73.388,13.69 C72.7159966,14.2593362 72.1606689,14.9406627 71.722,15.734 C71.2833311,16.5273373 70.928668,17.3253293 70.658,18.128 C70.387332,18.9306707 70.252,19.5933307 70.252,20.116 C70.252,20.6013358 70.3639989,20.8533332 70.588,20.872 C70.7373341,20.8533332 71.315995,20.0040084 72.324,18.324 C73.332005,16.6439916 74.3633281,14.9640084 75.418,13.284 C76.4726719,11.6039916 77.1306654,10.764 77.392,10.764 C77.6533346,10.764 77.9753314,10.8713323 78.358,11.086 C78.7406686,11.3006677 79.0533321,11.5199989 79.296,11.744 L79.66,12.08 L78.4,14.6 C78.1573321,15.0853358 77.7793359,15.8833278 77.266,16.994 C76.7526641,18.1046722 76.3886677,19.028663 76.174,19.766 C75.9593323,20.503337 75.852,21.105331 75.852,21.572 L75.852,21.824 C75.852,21.8426668 75.8613332,21.852 75.88,21.852 C75.9360003,21.852 76.0666656,21.7913339 76.272,21.67 C76.4773344,21.5486661 76.6639992,21.4226673 76.832,21.292 L77.084,21.096 C77.1773338,21.1893338 77.1773338,21.4506645 77.084,21.88 C77.0466665,22.0666676 76.8740015,22.3279983 76.566,22.664 C76.2579985,23.0000017 75.9640014,23.2799989 75.684,23.504 L75.264,23.868 C73.863993,23.868 73.164,23.1213408 73.164,21.628 C73.164,20.8253293 73.3319983,19.9340049 73.668,18.954 C74.0040017,17.9739951 74.367998,17.1106704 74.76,16.364 C72.2773209,20.7880221 70.9426676,23 70.756,23 C69.6546612,23 68.8520025,22.7106696 68.348,22.132 C67.8439975,21.5533304 67.592,20.7693383 67.592,19.78 C67.592,18.6226609 67.8906637,17.3206739 68.488,15.874 C69.0853363,14.4273261 69.7899959,13.2140049 70.602,12.234 C71.4140041,11.2539951 72.1279969,10.764 72.744,10.764 L72.772,10.764 Z M102.088,3.82 C100.370658,3.82 98.3733447,4.11866368 96.096,4.716 C93.8186553,5.31333632 92.409336,5.80799804 91.868,6.2 C92.1106679,6.14399972 92.3719986,6.116 92.652,6.116 C93.8093391,6.116 95.0226603,6.52199594 96.292,7.334 C97.5613397,8.14600406 98.4106645,8.99066228 98.84,9.868 C99.1760017,9.15866312 99.7173296,8.16000644 100.464,6.872 C101.21067,5.58399356 101.751998,4.5666704 102.088,3.82 Z M114.744,0.04 C114.968001,0.04 115.271331,0.39932974 115.654,1.118 C116.036669,1.83667026 116.228,2.5226634 116.228,3.176 C116.228,3.40000112 116.2,3.61466564 116.144,3.82 C115.042661,3.76399972 113.848006,3.736 112.56,3.736 C111.794663,3.736 110.623341,3.74999986 109.046,3.778 C107.468659,3.80600014 106.250671,3.82 105.392,3.82 C104.64533,5.63067572 103.586007,8.01998516 102.214,10.988 C100.841993,13.9560148 99.2273426,17.3766473 97.37,21.25 C95.5126574,25.1233527 94.5000008,27.2373316 94.332,27.592 C91.6253198,27.592 90.2440003,26.9946726 90.188,25.8 C90.6360022,25.1279966 91.2053299,24.2413388 91.896,23.14 C92.5866701,22.0386612 93.6413262,20.2420125 95.06,17.75 C96.4786738,15.2579875 97.458664,13.2933405 98,11.856 C97.6453316,10.3253257 96.964005,9.1866704 95.956,8.44 C94.947995,7.6933296 93.7720067,7.32 92.428,7.32 C91.6439961,7.32 90.8600039,7.44133212 90.076,7.684 C90.076,7.70266676 90.0666668,7.712 90.048,7.712 C89.9546662,7.712 89.7866679,7.59066788 89.544,7.348 C89.3013321,7.10533212 89.0586679,6.73200252 88.816,6.228 C88.5733321,5.72399748 88.4613332,5.1920028 88.48,4.632 C88.5733338,4.59466648 89.6233233,4.25866984 91.63,3.624 C93.6366767,2.98933016 95.1346617,2.5553345 96.124,2.322 C97.1133383,2.0886655 98.6626561,1.74800224 100.772,1.3 C102.881344,0.85199776 105.079322,0.5346676 107.366,0.348 C109.652678,0.1613324 112.111987,0.05866676 114.744,0.04 Z M107.968,4.744 C108.042667,4.744 108.140666,4.74866662 108.262,4.758 C108.383334,4.76733338 108.597998,4.7953331 108.906,4.842 C109.214002,4.8886669 109.484666,4.94933296 109.718,5.024 C109.951335,5.09866704 110.161332,5.21066592 110.348,5.36 C110.534668,5.50933408 110.618667,5.68666564 110.6,5.892 C109.629328,7.60934192 107.678681,11.8839658 104.748,18.716 C104.878667,18.4919989 105.055999,18.1980018 105.28,17.834 C105.504001,17.4699982 105.928664,16.8260046 106.554,15.902 C107.179336,14.9779954 107.771997,14.1566703 108.332,13.438 C108.892003,12.7193297 109.498663,12.0706696 110.152,11.492 C110.805337,10.9133304 111.346665,10.624 111.776,10.624 C113.026673,10.624 113.652,11.0253293 113.652,11.828 C113.652,12.0333344 113.605334,12.2853318 113.512,12.584 C113.231999,13.2560034 112.723337,14.2406602 111.986,15.538 C111.248663,16.8353398 110.660669,18.0019948 110.222,19.038 C109.783331,20.0740052 109.564,21.0119958 109.564,21.852 L109.592,21.852 C109.648,21.852 109.778666,21.7913339 109.984,21.67 C110.189334,21.5486661 110.375999,21.4226673 110.544,21.292 L110.796,21.096 C110.889334,21.1893338 110.889334,21.4506645 110.796,21.88 C110.758666,22.0666676 110.586002,22.3279983 110.278,22.664 C109.969998,23.0000017 109.676001,23.2799989 109.396,23.504 L108.976,23.868 C108.39733,23.8306665 107.884002,23.5553359 107.436,23.042 C106.987998,22.5286641 106.773333,21.9640031 106.792,21.348 C106.941334,20.7506637 107.207331,20.0086711 107.59,19.122 C107.972669,18.2353289 108.471997,17.1153401 109.088,15.762 C109.704003,14.4086599 110.235998,13.1906721 110.684,12.108 C110.497332,12.3506679 110.250002,12.6819979 109.942,13.102 C109.633998,13.5220021 109.078671,14.2826612 108.276,15.384 C107.473329,16.4853388 106.76867,17.4839955 106.162,18.38 C105.55533,19.2760045 105.004669,20.1626623 104.51,21.04 C104.015331,21.9173377 103.768,22.5053318 103.768,22.804 L103.74,22.804 C103.590666,22.804 103.422668,22.7853335 103.236,22.748 C103.049332,22.7106665 102.792668,22.6313339 102.466,22.51 C102.139332,22.3886661 101.868668,22.1693349 101.654,21.852 C101.439332,21.5346651 101.332,21.1333358 101.332,20.648 C101.332,20.4986659 101.341333,20.3400008 101.36,20.172 C101.472001,19.3693293 102.078661,17.6800129 103.18,15.104 C104.281339,12.5279871 105.354661,10.1573442 106.4,7.992 L107.968,4.744 Z M116.676,18.212 C116.414665,19.1266712 116.284,19.9386631 116.284,20.648 C116.284,21.9546732 116.713329,22.608 117.572,22.608 C118.020002,22.608 118.472664,22.4960011 118.93,22.272 C119.387336,22.0479989 119.779332,21.7913348 120.106,21.502 C120.432668,21.2126652 120.768665,20.8393356 121.114,20.382 C121.459335,19.9246644 121.711333,19.5653346 121.87,19.304 C122.028667,19.0426654 122.219999,18.716002 122.444,18.324 C122.817335,18.5293344 123.004,18.8933307 123.004,19.416 C123.004,19.7520017 122.910668,20.0879983 122.724,20.424 C122.257331,21.2453374 121.524672,22.024663 120.526,22.762 C119.527328,23.499337 118.421339,23.868 117.208,23.868 C116.069328,23.868 115.112671,23.5180035 114.338,22.818 C113.563329,22.1179965 113.176,21.1893391 113.176,20.032 C113.176,19.4719972 113.287999,18.8746698 113.512,18.24 C114.25867,16.0373223 115.275994,14.236007 116.564,12.836 C117.852006,11.435993 119.354658,10.736 121.072,10.736 C122.136005,10.736 122.868665,10.9366647 123.27,11.338 C123.671335,11.7393353 123.872,12.2666634 123.872,12.92 C123.872,13.7226707 123.615336,14.6419948 123.102,15.678 C122.588664,16.7140052 121.949337,17.6099962 121.184,18.366 C120.418663,19.1220038 119.71867,19.5 119.084,19.5 C118.243996,19.5 117.441337,19.070671 116.676,18.212 Z M116.844,17.68 L116.9,17.68 C117.684004,17.68 118.547329,17.3580032 119.49,16.714 C120.432671,16.0699968 121.211997,15.3373374 121.828,14.516 C122.444003,13.6946626 122.752,13.0320025 122.752,12.528 C122.752,12.0799978 122.481336,11.856 121.94,11.856 L121.912,11.856 C120.922662,11.8746668 119.961338,12.4626609 119.028,13.62 C118.094662,14.7773391 117.366669,16.1306589 116.844,17.68 Z M134.456,10.68 C135.874674,10.68 136.584,11.146662 136.584,12.08 C136.584,12.2293341 136.565334,12.3879992 136.528,12.556 C136.490666,12.6866673 136.220003,13.2933279 135.716,14.376 C135.211997,15.4586721 134.62867,16.6813265 133.966,18.044 C133.30333,19.4066735 132.860001,20.3306642 132.636,20.816 C133.32667,19.6399941 134.124662,18.3613402 135.03,16.98 C135.935338,15.5986598 136.938661,14.2220069 138.04,12.85 C139.141339,11.4779931 139.915998,10.7826668 140.364,10.764 C141.764007,10.764 142.464,11.2119955 142.464,12.108 C142.464,12.2760008 142.445334,12.4439992 142.408,12.612 C142.090665,13.3026701 141.55867,14.3059934 140.812,15.622 C140.06533,16.9380066 139.472669,18.099995 139.034,19.108 C138.595331,20.116005 138.376,21.0306626 138.376,21.852 L138.404,21.852 C138.46,21.852 138.590666,21.7913339 138.796,21.67 C139.001334,21.5486661 139.187999,21.4226673 139.356,21.292 L139.608,21.096 C139.701334,21.1893338 139.701334,21.4506645 139.608,21.88 C139.570666,22.0666676 139.398002,22.3279983 139.09,22.664 C138.781998,23.0000017 138.488001,23.2799989 138.208,23.504 L137.788,23.868 C137.20933,23.8306665 136.696002,23.5553359 136.248,23.042 C135.799998,22.5286641 135.585333,21.9640031 135.604,21.348 C135.958668,20.2839947 136.607329,18.7626766 137.55,16.784 C138.492671,14.8053234 139.141332,13.386671 139.496,12.528 C137.983992,14.6373439 136.476674,16.8026556 134.974,19.024 C133.471326,21.2453444 132.645334,22.5706645 132.496,23 C130.722658,23 129.789334,22.3653397 129.696,21.096 C129.789334,20.6666645 130.15333,19.7100074 130.788,18.226 C131.42267,16.7419926 132.02933,15.3653397 132.608,14.096 L133.476,12.164 C133.326666,12.3506676 133.121335,12.6119983 132.86,12.948 C132.598665,13.2840017 132.132003,13.9233286 131.46,14.866 C130.787997,15.8086714 130.181336,16.709329 129.64,17.568 C129.098664,18.426671 128.576003,19.3693282 128.072,20.396 C127.567997,21.4226718 127.260001,22.2906631 127.148,23 C127.073333,23 126.975334,22.9906668 126.854,22.972 C126.732666,22.9533332 126.513335,22.8973338 126.196,22.804 C125.878665,22.7106662 125.598668,22.5800008 125.356,22.412 C125.113332,22.2439992 124.894001,21.9780018 124.698,21.614 C124.501999,21.2499982 124.404,20.8253358 124.404,20.34 L124.404,20.2 C124.441334,19.3973293 124.76333,18.2073412 125.37,16.63 C125.97667,15.0526588 126.56933,13.6853391 127.148,12.528 L128.044,10.764 C128.1,10.764 128.183999,10.7733332 128.296,10.792 C128.408001,10.8106668 128.599332,10.8526663 128.87,10.918 C129.140668,10.9833337 129.378666,11.0626662 129.584,11.156 C129.789334,11.2493338 129.980666,11.3799992 130.158,11.548 C130.335334,11.7160008 130.424,11.9026656 130.424,12.108 C130.106665,12.6306693 129.542004,13.862657 128.73,15.804 C127.917996,17.745343 127.353335,19.2293282 127.036,20.256 C127.166667,19.9946654 127.353332,19.6493355 127.596,19.22 C127.838668,18.7906645 128.295997,18.0253388 128.968,16.924 C129.640003,15.8226612 130.274664,14.8520042 130.872,14.012 C131.469336,13.1719958 132.108663,12.4066701 132.79,11.716 C133.471337,11.0253299 134.026665,10.68 134.456,10.68 Z M145.208,18.212 C144.946665,19.1266712 144.816,19.9386631 144.816,20.648 C144.816,21.9546732 145.245329,22.608 146.104,22.608 C146.552002,22.608 147.004664,22.4960011 147.462,22.272 C147.919336,22.0479989 148.311332,21.7913348 148.638,21.502 C148.964668,21.2126652 149.300665,20.8393356 149.646,20.382 C149.991335,19.9246644 150.243333,19.5653346 150.402,19.304 C150.560667,19.0426654 150.751999,18.716002 150.976,18.324 C151.349335,18.5293344 151.536,18.8933307 151.536,19.416 C151.536,19.7520017 151.442668,20.0879983 151.256,20.424 C150.789331,21.2453374 150.056672,22.024663 149.058,22.762 C148.059328,23.499337 146.953339,23.868 145.74,23.868 C144.601328,23.868 143.644671,23.5180035 142.87,22.818 C142.095329,22.1179965 141.708,21.1893391 141.708,20.032 C141.708,19.4719972 141.819999,18.8746698 142.044,18.24 C142.79067,16.0373223 143.807994,14.236007 145.096,12.836 C146.384006,11.435993 147.886658,10.736 149.604,10.736 C150.668005,10.736 151.400665,10.9366647 151.802,11.338 C152.203335,11.7393353 152.404,12.2666634 152.404,12.92 C152.404,13.7226707 152.147336,14.6419948 151.634,15.678 C151.120664,16.7140052 150.481337,17.6099962 149.716,18.366 C148.950663,19.1220038 148.25067,19.5 147.616,19.5 C146.775996,19.5 145.973337,19.070671 145.208,18.212 Z M145.376,17.68 C145.394667,17.68 145.413333,17.68 145.432,17.68 C146.216004,17.68 147.079329,17.3580032 148.022,16.714 C148.964671,16.0699968 149.743997,15.3373374 150.36,14.516 C150.976003,13.6946626 151.284,13.0320025 151.284,12.528 C151.284,12.0799978 151.013336,11.856 150.472,11.856 C150.472,11.856 150.462667,11.856 150.444,11.856 C149.454662,11.8746668 148.493338,12.4626609 147.56,13.62 C146.626662,14.7773391 145.898669,16.1306589 145.376,17.68 Z" id="Quadra-Theme" fill="#333333"></path>
        <path d="M78.5617648,30.2010396 C100.031833,31.5935977 109.889448,32.8752208 123.39617,35.086571 C132.400651,36.5608045 139.672744,38.6133577 145.212447,41.2442307 C123.040458,36.9066904 102.85836,34.0678579 84.6661528,32.727733 C66.4739456,31.3876081 45.6050434,31.082657 22.0594462,31.8128798 C45.4142799,29.8099475 64.2483861,29.2726674 78.5617648,30.2010396 Z" fill="#333333"></path>
    </g>
</svg>
